<svg width="80" height="39" viewBox="0 0 80 39" fill="none" xmlns="http://www.w3.org/2000/svg">
<path d="M79.4559 21.0679H74.3684L74.3489 28.1826C74.3489 31.6035 77.2689 32.2993 79.4832 32.3929C79.7736 32.4046 80.0017 32.6463 80.0017 32.9387V37.5486C80.0017 37.8585 79.7483 38.1022 79.4383 38.0944C75.6062 38.0028 72.4133 36.9658 70.509 35.0107C67.8444 32.274 67.9067 29.1455 67.9262 28.8707L67.9828 9.20301C67.9828 8.90283 68.2284 8.65918 68.5286 8.65918H73.8675C74.1696 8.65918 74.4152 8.90673 74.4133 9.20886L74.3684 15.6744H79.4559C79.758 15.6744 80.0017 15.9181 80.0017 16.2202V20.5221C80.0017 20.8243 79.758 21.0679 79.4559 21.0679Z" fill="#0A4EE4"/>
<path d="M32.6922 36.6948L32.7059 5.75477C32.7059 5.45264 32.4622 5.20898 32.1601 5.20898H26.8114C26.5093 5.20898 26.2656 5.45264 26.2656 5.75477V36.6948C26.2656 36.9969 26.5093 37.2406 26.8114 37.2406H32.1464C32.4486 37.2406 32.6922 36.9969 32.6922 36.6948Z" fill="#0A4EE4"/>
<path d="M61.2526 24.6068C59.6153 23.9909 57.4438 23.527 55.5239 23.2112C54.5726 23.0435 53.8144 22.7999 53.2667 22.4841C52.3291 22.0066 52.3154 20.5251 53.2394 19.9872C54.288 19.2757 56.8493 19.342 57.9311 20.1412C58.3463 20.3868 58.6777 20.837 58.9155 21.375C58.9954 21.5563 59.1962 21.6498 59.3853 21.5933L64.2037 20.1256C64.5254 20.0281 64.6794 19.6655 64.5351 19.3615C63.9289 18.0769 62.9835 16.9854 61.6951 16.1219C58.549 13.851 52.0581 13.8841 49.0446 16.2388C46.3469 17.9795 45.6744 22.7434 47.7582 25.2013C49.5222 27.3065 52.3681 28.0608 55.1262 28.6417L55.1535 28.6476C56.3523 28.8347 58.4029 29.2382 59.0519 29.7177C60.0772 30.3297 59.97 31.7468 58.9876 32.4057C58.436 32.813 57.5452 33.0197 56.3386 33.0197C54.0074 33.0158 52.4499 32.1679 51.7463 30.2089C51.68 30.0257 51.4714 29.9126 51.2823 29.9633L46.4268 31.2205C46.1267 31.2985 45.9493 31.6104 46.0389 31.9067C46.5847 33.6746 47.6393 35.1404 49.185 36.1735C54.3758 39.6607 65.9541 38.766 65.7846 30.5948C65.7846 29.0004 65.3674 27.7119 64.541 26.7607C63.732 25.8309 62.6249 25.1058 61.2487 24.6068H61.2526Z" fill="#0A4EE4"/>
<path d="M42.5212 14.8066H37.0927C36.7912 14.8066 36.5469 15.051 36.5469 15.3524V36.6945C36.5469 36.9959 36.7912 37.2402 37.0927 37.2402H42.5212C42.8227 37.2402 43.067 36.9959 43.067 36.6945V15.3524C43.067 15.051 42.8227 14.8066 42.5212 14.8066Z" fill="#0A4EE4"/>
<path d="M39.8054 7.42062C37.8445 7.42062 36.2539 5.83006 36.2539 3.86914V7.61749C36.2539 9.57841 37.8445 11.169 39.8054 11.169C41.7663 11.169 43.3569 9.57841 43.3569 7.61749V3.86914C43.3569 5.83006 41.7663 7.42062 39.8054 7.42062Z" fill="#E64E36"/>
<path d="M43.3451 4.20081C43.5283 2.24795 42.0937 0.51632 40.1409 0.333097C38.188 0.149873 36.4564 1.58444 36.2732 3.53729C36.0899 5.49015 37.5245 7.22177 39.4774 7.405C41.4302 7.58822 43.1618 6.15366 43.3451 4.20081Z" fill="#0A4EE4"/>
<path d="M11.8259 14.4463C5.29409 14.4463 0 19.7404 0 26.2722C0 32.8041 5.29409 38.0982 11.8259 38.0982C18.3578 38.0982 23.6519 32.8041 23.6519 26.2722C23.6519 19.7404 18.3578 14.4463 11.8259 14.4463ZM11.8259 32.077C8.61946 32.077 6.02115 29.4787 6.02115 26.2722C6.02115 23.0657 8.61946 20.4674 11.8259 20.4674C15.0324 20.4674 17.6307 23.0657 17.6307 26.2722C17.6307 29.4787 15.0324 32.077 11.8259 32.077Z" fill="#0A4EE4"/>
</svg>
